<svg xmlns:xlink="http://www.w3.org/1999/xlink" xmlns="http://www.w3.org/2000/svg" class="css-ze2te4 css-qd6ojx" viewBox="0 0 100 98.44834282153805" width="110"  height="108" ><g transform="translate(-32.51898572369292, -33.31132415121328) scale(33.01419822479292)" class="css-pbv5hv" fill="#0077C0"><g xmlns="http://www.w3.org/2000/svg" fill="#0077C0"><g fill="#0077C0"><polygon fill="#0077C0" points="2.179,1.009 0.989,2.171 1.872,3.302 2.465,3.292 3.062,2.759 2.767,2.428 2.292,2.852     2.085,2.856 1.583,2.211 2.358,1.453 3.225,1.453 4.014,2.49 4.014,1.759 3.443,1.009   "></polygon></g><g fill="#0077C0"><polygon fill="#0077C0" points="2.544,1.708 1.947,2.242 2.242,2.571 2.717,2.148 2.923,2.145 3.426,2.79 2.649,3.547     1.784,3.547 0.985,2.499 0.985,3.23 1.565,3.991 2.83,3.991 4.014,2.833 4.014,2.824 3.137,1.697   "></polygon></g></g></g></svg>